<mxfile host="app.diagrams.net" modified="2023-11-16T14:31:02.795Z" agent="Mozilla/5.0 (Windows NT 10.0; Win64; x64) AppleWebKit/537.36 (KHTML, like Gecko) Chrome/119.0.0.0 Safari/537.36" etag="TwMHLY1xpajF8dKJfimV" version="21.3.7" type="device">
  <diagram name="Page-1" id="eJKQFJGt-F8M68S3LaDI">
    <mxGraphModel dx="1434" dy="768" grid="1" gridSize="10" guides="1" tooltips="1" connect="1" arrows="1" fold="1" page="1" pageScale="1" pageWidth="850" pageHeight="1100" math="0" shadow="0">
      <root>
        <mxCell id="0" />
        <mxCell id="1" parent="0" />
        <mxCell id="s0AW51rIm__TBNu33Rt7-3" value="data" style="shape=process;whiteSpace=wrap;html=1;backgroundOutline=1;" vertex="1" parent="1">
          <mxGeometry x="340" y="260" width="120" height="60" as="geometry" />
        </mxCell>
        <mxCell id="s0AW51rIm__TBNu33Rt7-5" value="" style="endArrow=classic;html=1;rounded=0;exitX=1;exitY=0.25;exitDx=0;exitDy=0;entryX=0;entryY=0.25;entryDx=0;entryDy=0;" edge="1" parent="1" source="s0AW51rIm__TBNu33Rt7-3" target="s0AW51rIm__TBNu33Rt7-6">
          <mxGeometry width="50" height="50" relative="1" as="geometry">
            <mxPoint x="510" y="270" as="sourcePoint" />
            <mxPoint x="520" y="220" as="targetPoint" />
            <Array as="points">
              <mxPoint x="480" y="265" />
              <mxPoint x="510" y="260" />
              <mxPoint x="530" y="260" />
            </Array>
          </mxGeometry>
        </mxCell>
        <mxCell id="s0AW51rIm__TBNu33Rt7-6" value="data" style="shape=process;whiteSpace=wrap;html=1;backgroundOutline=1;" vertex="1" parent="1">
          <mxGeometry x="560" y="250" width="120" height="60" as="geometry" />
        </mxCell>
        <mxCell id="s0AW51rIm__TBNu33Rt7-7" value="next" style="text;html=1;strokeColor=none;fillColor=none;align=center;verticalAlign=middle;whiteSpace=wrap;rounded=0;" vertex="1" parent="1">
          <mxGeometry x="480" y="230" width="60" height="30" as="geometry" />
        </mxCell>
        <mxCell id="s0AW51rIm__TBNu33Rt7-8" value="" style="endArrow=classic;html=1;rounded=0;exitX=1;exitY=0.25;exitDx=0;exitDy=0;entryX=0;entryY=0.25;entryDx=0;entryDy=0;" edge="1" parent="1" target="s0AW51rIm__TBNu33Rt7-9">
          <mxGeometry width="50" height="50" relative="1" as="geometry">
            <mxPoint x="680" y="275" as="sourcePoint" />
            <mxPoint x="740" y="220" as="targetPoint" />
            <Array as="points">
              <mxPoint x="700" y="265" />
              <mxPoint x="730" y="260" />
              <mxPoint x="750" y="260" />
            </Array>
          </mxGeometry>
        </mxCell>
        <mxCell id="s0AW51rIm__TBNu33Rt7-9" value="data" style="shape=process;whiteSpace=wrap;html=1;backgroundOutline=1;" vertex="1" parent="1">
          <mxGeometry x="780" y="250" width="120" height="60" as="geometry" />
        </mxCell>
        <mxCell id="s0AW51rIm__TBNu33Rt7-10" value="next" style="text;html=1;strokeColor=none;fillColor=none;align=center;verticalAlign=middle;whiteSpace=wrap;rounded=0;" vertex="1" parent="1">
          <mxGeometry x="700" y="230" width="60" height="30" as="geometry" />
        </mxCell>
        <mxCell id="s0AW51rIm__TBNu33Rt7-12" value="" style="endArrow=classic;html=1;rounded=0;exitX=0;exitY=0.75;exitDx=0;exitDy=0;entryX=1;entryY=0.75;entryDx=0;entryDy=0;" edge="1" parent="1" source="s0AW51rIm__TBNu33Rt7-6" target="s0AW51rIm__TBNu33Rt7-3">
          <mxGeometry width="50" height="50" relative="1" as="geometry">
            <mxPoint x="550" y="330" as="sourcePoint" />
            <mxPoint x="480" y="360" as="targetPoint" />
            <Array as="points">
              <mxPoint x="530" y="310" />
              <mxPoint x="510" y="310" />
              <mxPoint x="480" y="310" />
            </Array>
          </mxGeometry>
        </mxCell>
        <mxCell id="s0AW51rIm__TBNu33Rt7-13" value="previous" style="text;html=1;align=center;verticalAlign=middle;resizable=0;points=[];autosize=1;strokeColor=none;fillColor=none;" vertex="1" parent="1">
          <mxGeometry x="475" y="310" width="70" height="30" as="geometry" />
        </mxCell>
        <mxCell id="s0AW51rIm__TBNu33Rt7-14" value="" style="endArrow=classic;html=1;rounded=0;exitX=0;exitY=0.75;exitDx=0;exitDy=0;entryX=1;entryY=0.75;entryDx=0;entryDy=0;" edge="1" parent="1">
          <mxGeometry width="50" height="50" relative="1" as="geometry">
            <mxPoint x="780" y="290" as="sourcePoint" />
            <mxPoint x="680" y="300" as="targetPoint" />
            <Array as="points">
              <mxPoint x="750" y="305" />
              <mxPoint x="730" y="305" />
              <mxPoint x="700" y="305" />
            </Array>
          </mxGeometry>
        </mxCell>
        <mxCell id="s0AW51rIm__TBNu33Rt7-15" value="previous" style="text;html=1;align=center;verticalAlign=middle;resizable=0;points=[];autosize=1;strokeColor=none;fillColor=none;" vertex="1" parent="1">
          <mxGeometry x="695" y="305" width="70" height="30" as="geometry" />
        </mxCell>
        <mxCell id="s0AW51rIm__TBNu33Rt7-16" value="" style="endArrow=classic;html=1;rounded=0;exitX=1;exitY=0.25;exitDx=0;exitDy=0;entryX=0;entryY=0.25;entryDx=0;entryDy=0;" edge="1" parent="1" target="s0AW51rIm__TBNu33Rt7-17">
          <mxGeometry width="50" height="50" relative="1" as="geometry">
            <mxPoint x="900" y="272.5" as="sourcePoint" />
            <mxPoint x="960" y="217.5" as="targetPoint" />
            <Array as="points">
              <mxPoint x="920" y="262.5" />
              <mxPoint x="950" y="257.5" />
              <mxPoint x="970" y="257.5" />
            </Array>
          </mxGeometry>
        </mxCell>
        <mxCell id="s0AW51rIm__TBNu33Rt7-17" value="data" style="shape=process;whiteSpace=wrap;html=1;backgroundOutline=1;" vertex="1" parent="1">
          <mxGeometry x="1000" y="247.5" width="120" height="60" as="geometry" />
        </mxCell>
        <mxCell id="s0AW51rIm__TBNu33Rt7-18" value="next" style="text;html=1;strokeColor=none;fillColor=none;align=center;verticalAlign=middle;whiteSpace=wrap;rounded=0;" vertex="1" parent="1">
          <mxGeometry x="920" y="227.5" width="60" height="30" as="geometry" />
        </mxCell>
        <mxCell id="s0AW51rIm__TBNu33Rt7-19" value="" style="endArrow=classic;html=1;rounded=0;exitX=0;exitY=0.75;exitDx=0;exitDy=0;entryX=1;entryY=0.75;entryDx=0;entryDy=0;" edge="1" parent="1">
          <mxGeometry width="50" height="50" relative="1" as="geometry">
            <mxPoint x="1000" y="287.5" as="sourcePoint" />
            <mxPoint x="900" y="297.5" as="targetPoint" />
            <Array as="points">
              <mxPoint x="970" y="302.5" />
              <mxPoint x="950" y="302.5" />
              <mxPoint x="920" y="302.5" />
            </Array>
          </mxGeometry>
        </mxCell>
        <mxCell id="s0AW51rIm__TBNu33Rt7-20" value="previous" style="text;html=1;align=center;verticalAlign=middle;resizable=0;points=[];autosize=1;strokeColor=none;fillColor=none;" vertex="1" parent="1">
          <mxGeometry x="915" y="302.5" width="70" height="30" as="geometry" />
        </mxCell>
        <mxCell id="s0AW51rIm__TBNu33Rt7-21" value="first" style="text;html=1;align=center;verticalAlign=middle;resizable=0;points=[];autosize=1;strokeColor=none;fillColor=none;fontSize=16;" vertex="1" parent="1">
          <mxGeometry x="310" y="220" width="50" height="30" as="geometry" />
        </mxCell>
        <mxCell id="s0AW51rIm__TBNu33Rt7-27" value="last" style="text;html=1;align=center;verticalAlign=middle;resizable=0;points=[];autosize=1;strokeColor=none;fillColor=none;fontSize=16;" vertex="1" parent="1">
          <mxGeometry x="1090" y="200" width="50" height="30" as="geometry" />
        </mxCell>
        <mxCell id="s0AW51rIm__TBNu33Rt7-28" value="" style="endArrow=classic;html=1;rounded=0;exitX=1;exitY=0.25;exitDx=0;exitDy=0;entryX=0;entryY=0.25;entryDx=0;entryDy=0;" edge="1" parent="1">
          <mxGeometry width="50" height="50" relative="1" as="geometry">
            <mxPoint x="1120" y="275" as="sourcePoint" />
            <mxPoint x="1220" y="265.5" as="targetPoint" />
            <Array as="points">
              <mxPoint x="1140" y="265" />
              <mxPoint x="1170" y="260" />
              <mxPoint x="1190" y="260" />
            </Array>
          </mxGeometry>
        </mxCell>
        <mxCell id="s0AW51rIm__TBNu33Rt7-29" value="next" style="text;html=1;strokeColor=none;fillColor=none;align=center;verticalAlign=middle;whiteSpace=wrap;rounded=0;" vertex="1" parent="1">
          <mxGeometry x="1140" y="230" width="60" height="30" as="geometry" />
        </mxCell>
        <mxCell id="s0AW51rIm__TBNu33Rt7-30" value="" style="endArrow=classic;html=1;rounded=0;exitX=0;exitY=0.75;exitDx=0;exitDy=0;entryX=1;entryY=0.75;entryDx=0;entryDy=0;" edge="1" parent="1">
          <mxGeometry width="50" height="50" relative="1" as="geometry">
            <mxPoint x="340" y="290" as="sourcePoint" />
            <mxPoint x="240" y="300" as="targetPoint" />
            <Array as="points">
              <mxPoint x="310" y="305" />
              <mxPoint x="290" y="305" />
              <mxPoint x="260" y="305" />
            </Array>
          </mxGeometry>
        </mxCell>
        <mxCell id="s0AW51rIm__TBNu33Rt7-31" value="previous" style="text;html=1;align=center;verticalAlign=middle;resizable=0;points=[];autosize=1;strokeColor=none;fillColor=none;" vertex="1" parent="1">
          <mxGeometry x="255" y="305" width="70" height="30" as="geometry" />
        </mxCell>
        <mxCell id="s0AW51rIm__TBNu33Rt7-32" value="null" style="text;html=1;align=center;verticalAlign=middle;resizable=0;points=[];autosize=1;strokeColor=none;fillColor=none;" vertex="1" parent="1">
          <mxGeometry x="210" y="280" width="40" height="30" as="geometry" />
        </mxCell>
        <mxCell id="s0AW51rIm__TBNu33Rt7-33" value="null" style="text;html=1;align=center;verticalAlign=middle;resizable=0;points=[];autosize=1;strokeColor=none;fillColor=none;" vertex="1" parent="1">
          <mxGeometry x="1210" y="247.5" width="40" height="30" as="geometry" />
        </mxCell>
      </root>
    </mxGraphModel>
  </diagram>
</mxfile>
